<?xml version="1.0" standalone="no"?>
<!DOCTYPE svg PUBLIC "-//W3C//DTD SVG 20010904//EN"
 "http://www.w3.org/TR/2001/REC-SVG-20010904/DTD/svg10.dtd">
<svg version="1.0" xmlns="http://www.w3.org/2000/svg"
 width="128.000000pt" height="128.000000pt" viewBox="0 0 128.000000 128.000000"
 preserveAspectRatio="xMidYMid meet">

<g transform="translate(0.000000,128.000000) scale(0.100000,-0.100000)"
fill="#000000" stroke="none">
<path d="M255 952 c-10 -70 -22 -136 -26 -147 l-8 -20 -1 20 c-1 15 -4 12 -11
-10 -5 -16 -6 -38 -3 -49 4 -10 0 -61 -7 -112 -11 -81 -15 -93 -33 -96 -16 -2
-22 -13 -28 -48 -11 -62 -6 -70 44 -69 24 1 56 -4 71 -10 16 -6 30 -11 33 -11
2 0 4 29 4 65 0 44 5 74 16 90 17 26 34 33 34 13 0 -6 -3 -8 -7 -5 -3 4 -12
-1 -18 -10 -9 -12 -10 -23 -2 -40 5 -12 13 -20 17 -18 4 2 6 -19 4 -48 l-3
-52 9 54 c6 43 5 57 -7 69 -12 12 -12 16 -1 23 7 5 16 9 19 9 10 0 16 -70 7
-76 -12 -7 -10 -64 2 -64 6 0 10 -13 10 -30 0 -22 5 -30 18 -30 9 0 28 -6 42
-13 15 -8 48 -17 74 -20 27 -4 54 -14 61 -23 9 -13 20 -15 48 -10 l37 7 0 79
c0 43 -4 82 -10 85 -19 12 -11 43 13 48 l22 4 -22 2 c-28 1 -30 22 -5 44 24
22 42 22 43 0 0 -10 1 -82 2 -160 3 -150 9 -170 46 -158 20 6 21 13 21 149 0
136 1 144 23 164 36 34 46 28 45 -28 0 -51 -3 -56 -26 -41 -11 6 -10 10 3 15
14 5 15 9 5 21 -7 8 -20 15 -29 15 -13 -1 -13 -3 3 -15 15 -11 16 -15 5 -15
-8 0 -15 -9 -15 -21 0 -14 5 -19 17 -16 12 3 15 -1 12 -17 -4 -21 -4 -21 11
-2 15 18 16 10 16 -103 0 -135 6 -150 61 -151 15 0 37 -8 50 -18 38 -29 80
-22 116 18 24 27 39 35 65 35 l33 0 -3 110 c-2 61 -8 139 -13 175 -5 36 -9
101 -9 145 0 53 -6 96 -18 128 l-19 49 -13 -31 c-7 -17 -12 -49 -12 -71 1 -23
-3 -38 -9 -35 -5 4 -9 20 -9 36 0 18 -4 28 -10 24 -5 -3 -10 -17 -10 -31 0
-13 -4 -24 -10 -24 -5 0 -10 22 -10 49 0 28 -4 52 -9 56 -5 3 -13 20 -16 37
l-7 32 -16 -30 c-11 -18 -17 -54 -17 -99 l0 -70 -32 -3 c-28 -3 -33 0 -33 18
0 40 -25 14 -30 -31 -7 -57 -12 -64 -50 -67 -18 -1 -40 -7 -51 -12 -12 -7 -20
-7 -24 0 -3 5 -15 10 -26 10 -17 0 -19 8 -20 63 -1 34 -4 52 -6 40 -5 -24 -32
-32 -34 -10 0 6 -4 3 -9 -8 -8 -18 -9 -17 -9 8 -1 34 -21 36 -21 2 0 -31 -18
-33 -30 -2 l-9 22 0 -22 c-1 -26 -27 -22 -34 5 -4 15 -5 15 -6 0 -2 -32 -31
-21 -31 11 0 16 -5 42 -11 58 -10 26 -12 27 -19 8 -5 -11 -9 -32 -9 -47 -1
-42 -36 -38 -46 5 -6 28 -8 30 -15 12 -5 -11 -9 -46 -9 -77 -1 -44 -5 -58 -15
-58 -23 0 -27 14 -31 116 -2 53 -6 99 -9 102 -4 3 -6 -3 -7 -14 0 -18 -1 -18
-9 2 -4 11 -11 75 -15 142 -4 68 -11 124 -15 127 -4 2 -15 -53 -25 -123z m115
-376 c0 -3 -4 -8 -10 -11 -5 -3 -10 -1 -10 4 0 6 5 11 10 11 6 0 10 -2 10 -4z
m350 -15 c0 -6 -4 -13 -10 -16 -5 -3 -10 1 -10 9 0 9 5 16 10 16 6 0 10 -4 10
-9z"/>
<path d="M653 545 c-9 -10 -10 -16 -2 -21 15 -9 36 13 24 25 -6 6 -15 4 -22
-4z"/>
<path d="M800 541 c0 -5 5 -13 10 -16 6 -3 10 -2 10 4 0 5 -4 13 -10 16 -5 3
-10 2 -10 -4z"/>
<path d="M300 446 c0 -25 5 -46 10 -46 6 0 10 18 10 39 0 22 -4 43 -10 46 -6
4 -10 -12 -10 -39z"/>
<path d="M640 479 c0 -6 7 -9 14 -6 11 4 13 1 9 -11 -5 -13 -3 -14 7 -5 7 6 9
16 6 22 -9 14 -36 14 -36 0z"/>
<path d="M660 365 c0 -37 4 -65 10 -65 6 0 10 28 10 65 0 37 -4 65 -10 65 -6
0 -10 -28 -10 -65z"/>
<path d="M770 340 c0 -58 4 -89 10 -85 6 3 10 42 10 85 0 43 -4 82 -10 85 -6
4 -10 -27 -10 -85z"/>
<path d="M800 335 c0 -48 4 -74 10 -70 6 3 10 35 10 70 0 35 -4 67 -10 70 -6
4 -10 -22 -10 -70z"/>
</g>
</svg>
